IMDB Link
 
http://www.imdb.com/title/tt1564585/

IMDB Rating

4.8/10 (3,088 votes)

Release Date

12 November 2010 (UK)

Genre

Sci-Fi | Thriller

Cast

Eric Balfour ... Jarrod
Scottie Thompson ... ElaineDaniel ... Candice
Crystal Reed ... Denise
Neil Hopkins ... Ray
David Zayas ... Oliver
Donald Faison ... Terry
Robin Gammell ... Walt
Tanya Newbould ... Jen
J. Paul Boehmer ... Colin
Phet Mahathongdy ... Airplane Mom / Bartender (as Phet Mahathongdy O'Donnell)
Byron McIntyre ... Limo Driver
Jackie Marin ... Girl in Pool
Tony Black ... Guy at Party
Eliza Till ... Girl at Party
James Huang ... Soldier #1
Erik Rondell ... Soldier #2
Johnny DeBeer ... Rocket Soldier
Lauren Marin ... Abducted Girl
Matt Frels ... Abducted Guy
Pam Levin ... Pregnant Abductee

Plot

Strange lights descend on the city of Los Angeles, drawing people outside like moths to a flame where an extraterrestrial force threatens to swallow the entire human population off the face of the Earth.

Source Used

Skyline.TELESYNC.XviD-TWiZTED (Thanks)

General

Complete name : Skyline, 2010, TS, x264-Jucified (350MB).mp4
Format : MPEG-4
Format profile : Base Media
Codec ID : isom
File size : 350 MiB
Duration : 1h 24mn
Overall bit rate : 579 Kbps

Video

Format : AVC
Format/Info : Advanced Video Codec
Format profile : High@L4.1
Format settings, CABAC : Yes
Format settings, ReFrames : 2 frames
Codec ID : avc1
Codec ID/Info : Advanced Video Coding
Duration : 1h 24mn
Bit rate mode : Variable
Bit rate : 543 Kbps
Maximum bit rate : 1 170 Kbps
Width : 624 pixels
Height : 256 pixels
Display aspect ratio : 2.438
Frame rate mode : Constant
Frame rate : 25.000 fps
Resolution : 24 bits
Colorimetry : 4:2:0
Scan type : Progressive
Bits/(Pixel*Frame) : 0.136
Stream size : 329 MiB (94%)

Audio

Format : AAC
Format/Info : Advanced Audio Codec
Format version : Version 4
Format profile : LC
Format settings, SBR : No
Codec ID : 40
Duration : 1h 24mn
Bit rate mode : Variable
Bit rate : 32.0 Kbps
Maximum bit rate : 38.3 Kbps
Channel(s) : 2 channels
Channel positions : L R
Sampling rate : 48.0 KHz
Resolution : 16 bits
Stream size : 19.4 MiB (6%)
